<?xml version="1.0" encoding="utf-8"?>
<!-- Generator: Adobe Illustrator 27.1.1, SVG Export Plug-In . SVG Version: 6.00 Build 0)  -->
<svg version="1.1" id="Layer_2" xmlns="http://www.w3.org/2000/svg" xmlns:xlink="http://www.w3.org/1999/xlink" x="0px" y="0px"
	 viewBox="0 0 92.87 92.19" style="enable-background:new 0 0 92.87 92.19;" xml:space="preserve">
<polygon points="15,27.8 19.69,27.8 19.69,32.14 23.31,32.14 23.31,35.75 27.64,35.75 27.64,40.08 31.97,40.08 31.97,44.41 
	36.28,44.41 36.28,48.39 31.97,48.39 31.97,53.08 28.36,53.08 28.36,56.69 24.03,56.69 24.03,61.39 19.33,61.39 19.33,65.39 
	15,65.39 15,73.89 19.33,73.89 19.33,78 27.28,78 27.28,72.94 31.61,72.94 31.61,69.33 35.95,69.33 35.95,65.72 40.28,65.72 
	40.28,60.67 43.89,60.67 43.89,56.75 48.22,56.75 48.22,60.67 52.56,60.67 52.56,65 56.89,65 56.89,69.33 61.23,69.33 61.23,73.67 
	65.3,73.67 65.3,78 72.99,78 72.99,73.62 77.12,73.62 77.12,65.72 73.53,65.72 73.53,61.39 69.34,61.39 69.34,57.05 64.89,57.05 
	64.89,52.72 60.98,52.72 60.98,48.39 56.66,48.39 56.66,44.05 60.84,44.05 60.84,40.44 65.03,40.44 65.03,36.5 69.17,36.5 
	69.17,31.77 73.5,31.77 73.5,27.73 77.12,27.73 77.12,19.9 73.12,19.9 73.12,15.58 65.56,15.58 65.56,19.77 61.23,19.77 
	61.23,23.95 56.89,23.95 56.89,28 52.56,28 52.56,32.18 48.56,32.18 48.56,36.5 43.89,36.5 43.89,31.77 39.92,31.77 39.92,28.27 
	35.87,28.27 35.87,23.83 31.69,23.83 31.69,19.5 27.5,19.5 27.5,15.58 19.33,15.58 19.33,19.5 15,19.5 "/>
</svg>


