<?xml version="1.0" standalone="yes"?>
<svg xmlns="http://www.w3.org/2000/svg" width="333" height="292">
<!-- <path style="fill:#ffffff; stroke:none;" d="M0 0L0 292L333 292L333 0L0 0z"/> -->
<path style="fill:#000; stroke:none;" d="M91 28L91 42L63 42L63 70L49 70L49 126L63 126L63 154L77 154L77 168L91 168L91 196L105 196L105 210L119 210L119 224L133 224L133 238L147 238L147 252L161 252L161 266L175 266L175 252L189 252L189 238L203 238L203 224L217 224L217 210L231 210L231 196L245 196L245 168L259 168L259 154L273 154L273 126L287 126L287 70L273 70L273 42L245 42L245 28L203 28L203 42L189 42L189 56L175 56L175 70L161 70L161 56L147 56L147 42L133 42L133 28L91 28z"/>
<path style="fill:#ffffff; stroke:none;" d="M105 42L105 56L119 56L119 42L105 42M217 42L217 56L245 56L245 42L217 42z"/>
</svg>
